<mxfile host="Electron" modified="2024-07-09T09:20:48.183Z" agent="Mozilla/5.0 (Windows NT 10.0; Win64; x64) AppleWebKit/537.36 (KHTML, like Gecko) draw.io/24.6.4 Chrome/124.0.6367.207 Electron/30.0.6 Safari/537.36" etag="mTE8tYW4wtIrxDKWLC0k" version="24.6.4" type="device">
  <diagram name="第 1 页" id="6PeBSwNavSRIJO7jyesI">
    <mxGraphModel dx="864" dy="516" grid="1" gridSize="10" guides="1" tooltips="1" connect="1" arrows="1" fold="1" page="1" pageScale="1" pageWidth="827" pageHeight="1169" math="0" shadow="0">
      <root>
        <mxCell id="0" />
        <mxCell id="1" parent="0" />
        <mxCell id="BamQJqI97XT_XGTdCBk3-8" style="edgeStyle=orthogonalEdgeStyle;rounded=0;orthogonalLoop=1;jettySize=auto;html=1;exitX=0.5;exitY=1;exitDx=0;exitDy=0;entryX=0;entryY=0.5;entryDx=0;entryDy=0;" parent="1" source="BamQJqI97XT_XGTdCBk3-1" target="BamQJqI97XT_XGTdCBk3-3" edge="1">
          <mxGeometry relative="1" as="geometry" />
        </mxCell>
        <mxCell id="BamQJqI97XT_XGTdCBk3-12" value="Hold Right&lt;div&gt;按着右键&lt;/div&gt;" style="edgeLabel;html=1;align=center;verticalAlign=middle;resizable=0;points=[];" parent="BamQJqI97XT_XGTdCBk3-8" vertex="1" connectable="0">
          <mxGeometry x="-0.35" y="2" relative="1" as="geometry">
            <mxPoint as="offset" />
          </mxGeometry>
        </mxCell>
        <mxCell id="BamQJqI97XT_XGTdCBk3-15" style="edgeStyle=orthogonalEdgeStyle;rounded=0;orthogonalLoop=1;jettySize=auto;html=1;exitX=1.05;exitY=0.133;exitDx=0;exitDy=0;entryX=0;entryY=0;entryDx=0;entryDy=0;exitPerimeter=0;" parent="1" source="BamQJqI97XT_XGTdCBk3-1" target="BamQJqI97XT_XGTdCBk3-4" edge="1">
          <mxGeometry relative="1" as="geometry" />
        </mxCell>
        <mxCell id="BamQJqI97XT_XGTdCBk3-16" value="Press Space&lt;div&gt;按下空格&lt;/div&gt;" style="edgeLabel;html=1;align=center;verticalAlign=middle;resizable=0;points=[];" parent="BamQJqI97XT_XGTdCBk3-15" vertex="1" connectable="0">
          <mxGeometry x="-0.075" y="1" relative="1" as="geometry">
            <mxPoint as="offset" />
          </mxGeometry>
        </mxCell>
        <mxCell id="BamQJqI97XT_XGTdCBk3-1" value="Idle&lt;div&gt;玩家静止&lt;/div&gt;" style="rounded=1;whiteSpace=wrap;html=1;" parent="1" vertex="1">
          <mxGeometry x="10" y="190" width="120" height="60" as="geometry" />
        </mxCell>
        <mxCell id="BamQJqI97XT_XGTdCBk3-2" value="Going Left&lt;div&gt;玩家向左移动&lt;/div&gt;" style="ellipse;whiteSpace=wrap;html=1;" parent="1" vertex="1">
          <mxGeometry x="170" y="30" width="120" height="80" as="geometry" />
        </mxCell>
        <mxCell id="BamQJqI97XT_XGTdCBk3-3" value="Going Right&lt;div&gt;玩家向右移动&lt;/div&gt;" style="ellipse;whiteSpace=wrap;html=1;" parent="1" vertex="1">
          <mxGeometry x="160" y="320" width="120" height="80" as="geometry" />
        </mxCell>
        <mxCell id="BamQJqI97XT_XGTdCBk3-17" style="edgeStyle=orthogonalEdgeStyle;rounded=0;orthogonalLoop=1;jettySize=auto;html=1;exitX=1;exitY=0;exitDx=0;exitDy=0;entryX=0;entryY=0;entryDx=0;entryDy=0;" parent="1" source="BamQJqI97XT_XGTdCBk3-4" target="BamQJqI97XT_XGTdCBk3-5" edge="1">
          <mxGeometry relative="1" as="geometry" />
        </mxCell>
        <mxCell id="BamQJqI97XT_XGTdCBk3-18" value="Press Space&lt;div&gt;按下空格&lt;/div&gt;" style="edgeLabel;html=1;align=center;verticalAlign=middle;resizable=0;points=[];" parent="BamQJqI97XT_XGTdCBk3-17" vertex="1" connectable="0">
          <mxGeometry x="-0.1429" y="-3" relative="1" as="geometry">
            <mxPoint y="-15" as="offset" />
          </mxGeometry>
        </mxCell>
        <mxCell id="QN-UZAxokHKyDBUfd1wA-4" style="edgeStyle=orthogonalEdgeStyle;rounded=0;orthogonalLoop=1;jettySize=auto;html=1;exitX=0;exitY=1;exitDx=0;exitDy=0;entryX=1;entryY=0.75;entryDx=0;entryDy=0;" edge="1" parent="1" source="BamQJqI97XT_XGTdCBk3-4" target="BamQJqI97XT_XGTdCBk3-1">
          <mxGeometry relative="1" as="geometry" />
        </mxCell>
        <mxCell id="QN-UZAxokHKyDBUfd1wA-5" value="Press ESCAPE&lt;br&gt;按下ESC" style="edgeLabel;html=1;align=center;verticalAlign=middle;resizable=0;points=[];" vertex="1" connectable="0" parent="QN-UZAxokHKyDBUfd1wA-4">
          <mxGeometry x="-0.0832" relative="1" as="geometry">
            <mxPoint as="offset" />
          </mxGeometry>
        </mxCell>
        <mxCell id="BamQJqI97XT_XGTdCBk3-4" value="Getting Angle&lt;div&gt;获取角度&lt;/div&gt;" style="ellipse;whiteSpace=wrap;html=1;" parent="1" vertex="1">
          <mxGeometry x="240" y="180" width="120" height="80" as="geometry" />
        </mxCell>
        <mxCell id="BamQJqI97XT_XGTdCBk3-19" style="edgeStyle=orthogonalEdgeStyle;rounded=0;orthogonalLoop=1;jettySize=auto;html=1;exitX=1;exitY=0;exitDx=0;exitDy=0;entryX=0;entryY=0;entryDx=0;entryDy=0;" parent="1" source="BamQJqI97XT_XGTdCBk3-5" target="BamQJqI97XT_XGTdCBk3-6" edge="1">
          <mxGeometry relative="1" as="geometry" />
        </mxCell>
        <mxCell id="BamQJqI97XT_XGTdCBk3-20" value="Press Space&lt;div&gt;按下空格&lt;/div&gt;" style="edgeLabel;html=1;align=center;verticalAlign=middle;resizable=0;points=[];" parent="BamQJqI97XT_XGTdCBk3-19" vertex="1" connectable="0">
          <mxGeometry x="-0.26" y="-2" relative="1" as="geometry">
            <mxPoint x="11" y="-14" as="offset" />
          </mxGeometry>
        </mxCell>
        <mxCell id="QN-UZAxokHKyDBUfd1wA-6" style="edgeStyle=orthogonalEdgeStyle;rounded=0;orthogonalLoop=1;jettySize=auto;html=1;exitX=0;exitY=1;exitDx=0;exitDy=0;entryX=1;entryY=1;entryDx=0;entryDy=0;" edge="1" parent="1" source="BamQJqI97XT_XGTdCBk3-5" target="BamQJqI97XT_XGTdCBk3-4">
          <mxGeometry relative="1" as="geometry" />
        </mxCell>
        <mxCell id="QN-UZAxokHKyDBUfd1wA-7" value="Press ESCAPE&lt;br&gt;按下ESC" style="edgeLabel;html=1;align=center;verticalAlign=middle;resizable=0;points=[];" vertex="1" connectable="0" parent="QN-UZAxokHKyDBUfd1wA-6">
          <mxGeometry x="0.1036" y="2" relative="1" as="geometry">
            <mxPoint as="offset" />
          </mxGeometry>
        </mxCell>
        <mxCell id="BamQJqI97XT_XGTdCBk3-5" value="Getting Force&lt;div&gt;获取力度&lt;/div&gt;" style="ellipse;whiteSpace=wrap;html=1;" parent="1" vertex="1">
          <mxGeometry x="460" y="180" width="120" height="80" as="geometry" />
        </mxCell>
        <mxCell id="QN-UZAxokHKyDBUfd1wA-8" style="edgeStyle=orthogonalEdgeStyle;rounded=0;orthogonalLoop=1;jettySize=auto;html=1;exitX=0;exitY=1;exitDx=0;exitDy=0;entryX=1;entryY=1;entryDx=0;entryDy=0;" edge="1" parent="1" source="BamQJqI97XT_XGTdCBk3-6" target="BamQJqI97XT_XGTdCBk3-5">
          <mxGeometry relative="1" as="geometry" />
        </mxCell>
        <mxCell id="QN-UZAxokHKyDBUfd1wA-9" value="Press ESCAPE&lt;br&gt;按下ESC" style="edgeLabel;html=1;align=center;verticalAlign=middle;resizable=0;points=[];" vertex="1" connectable="0" parent="QN-UZAxokHKyDBUfd1wA-8">
          <mxGeometry x="0.2707" y="1" relative="1" as="geometry">
            <mxPoint x="21" y="1" as="offset" />
          </mxGeometry>
        </mxCell>
        <mxCell id="BamQJqI97XT_XGTdCBk3-6" value="Shooting&lt;div&gt;发射炮弹&lt;/div&gt;" style="ellipse;whiteSpace=wrap;html=1;" parent="1" vertex="1">
          <mxGeometry x="700" y="180" width="120" height="80" as="geometry" />
        </mxCell>
        <mxCell id="BamQJqI97XT_XGTdCBk3-7" style="edgeStyle=orthogonalEdgeStyle;rounded=0;orthogonalLoop=1;jettySize=auto;html=1;exitX=0.5;exitY=0;exitDx=0;exitDy=0;entryX=-0.008;entryY=0.65;entryDx=0;entryDy=0;entryPerimeter=0;" parent="1" source="BamQJqI97XT_XGTdCBk3-1" target="BamQJqI97XT_XGTdCBk3-2" edge="1">
          <mxGeometry relative="1" as="geometry" />
        </mxCell>
        <mxCell id="BamQJqI97XT_XGTdCBk3-11" value="Hold Left&lt;div&gt;按着左键&lt;/div&gt;" style="edgeLabel;html=1;align=center;verticalAlign=middle;resizable=0;points=[];" parent="BamQJqI97XT_XGTdCBk3-7" vertex="1" connectable="0">
          <mxGeometry x="-0.0726" y="-2" relative="1" as="geometry">
            <mxPoint as="offset" />
          </mxGeometry>
        </mxCell>
        <mxCell id="BamQJqI97XT_XGTdCBk3-9" style="edgeStyle=orthogonalEdgeStyle;rounded=0;orthogonalLoop=1;jettySize=auto;html=1;exitX=0.5;exitY=1;exitDx=0;exitDy=0;entryX=0.592;entryY=-0.067;entryDx=0;entryDy=0;entryPerimeter=0;" parent="1" source="BamQJqI97XT_XGTdCBk3-2" target="BamQJqI97XT_XGTdCBk3-1" edge="1">
          <mxGeometry relative="1" as="geometry" />
        </mxCell>
        <mxCell id="BamQJqI97XT_XGTdCBk3-14" value="Release Left&lt;div&gt;释放左键&lt;/div&gt;" style="edgeLabel;html=1;align=center;verticalAlign=middle;resizable=0;points=[];" parent="BamQJqI97XT_XGTdCBk3-9" vertex="1" connectable="0">
          <mxGeometry x="0.0045" y="-2" relative="1" as="geometry">
            <mxPoint as="offset" />
          </mxGeometry>
        </mxCell>
        <mxCell id="BamQJqI97XT_XGTdCBk3-10" style="edgeStyle=orthogonalEdgeStyle;rounded=0;orthogonalLoop=1;jettySize=auto;html=1;exitX=0.5;exitY=0;exitDx=0;exitDy=0;entryX=0.633;entryY=1.017;entryDx=0;entryDy=0;entryPerimeter=0;" parent="1" source="BamQJqI97XT_XGTdCBk3-3" target="BamQJqI97XT_XGTdCBk3-1" edge="1">
          <mxGeometry relative="1" as="geometry" />
        </mxCell>
        <mxCell id="BamQJqI97XT_XGTdCBk3-13" value="Release Right&lt;div&gt;放开右键&lt;/div&gt;" style="edgeLabel;html=1;align=center;verticalAlign=middle;resizable=0;points=[];" parent="BamQJqI97XT_XGTdCBk3-10" vertex="1" connectable="0">
          <mxGeometry x="-0.1822" y="-1" relative="1" as="geometry">
            <mxPoint as="offset" />
          </mxGeometry>
        </mxCell>
        <mxCell id="BamQJqI97XT_XGTdCBk3-24" style="edgeStyle=orthogonalEdgeStyle;rounded=0;orthogonalLoop=1;jettySize=auto;html=1;exitX=1;exitY=0.5;exitDx=0;exitDy=0;entryX=0;entryY=0.5;entryDx=0;entryDy=0;" parent="1" source="BamQJqI97XT_XGTdCBk3-21" target="BamQJqI97XT_XGTdCBk3-22" edge="1">
          <mxGeometry relative="1" as="geometry" />
        </mxCell>
        <mxCell id="BamQJqI97XT_XGTdCBk3-25" value="Collision&lt;br&gt;碰撞到物体" style="edgeLabel;html=1;align=center;verticalAlign=middle;resizable=0;points=[];" parent="BamQJqI97XT_XGTdCBk3-24" vertex="1" connectable="0">
          <mxGeometry x="-0.1333" relative="1" as="geometry">
            <mxPoint as="offset" />
          </mxGeometry>
        </mxCell>
        <mxCell id="BamQJqI97XT_XGTdCBk3-21" value="&lt;div&gt;Flying&lt;/div&gt;炮弹飞行" style="ellipse;whiteSpace=wrap;html=1;" parent="1" vertex="1">
          <mxGeometry x="40" y="510" width="120" height="80" as="geometry" />
        </mxCell>
        <mxCell id="BamQJqI97XT_XGTdCBk3-22" value="Exploding&lt;div&gt;炮弹爆炸&lt;/div&gt;" style="ellipse;whiteSpace=wrap;html=1;" parent="1" vertex="1">
          <mxGeometry x="310" y="510" width="120" height="80" as="geometry" />
        </mxCell>
      </root>
    </mxGraphModel>
  </diagram>
</mxfile>
